<svg xmlns="http://www.w3.org/2000/svg" viewBox="0 0 20 20" focusable="false" aria-hidden="true">
  <path d="m16.36,3.64c-1.69-1.69-3.98-2.64-6.36-2.64s-4.68.95-6.36,2.64c-1.69,1.69-2.64,3.98-2.64,6.36s.95,4.68,2.64,6.36c1.69,1.69,3.98,2.64,6.36,2.64s4.68-.95,6.36-2.64c1.69-1.69,2.64-3.98,2.64-6.36s-.95-4.68-2.64-6.36Zm-.8,11.93c-1.48,1.48-3.48,2.31-5.57,2.31s-4.09-.83-5.57-2.31c-1.48-1.48-2.31-3.48-2.31-5.57s.83-4.09,2.31-5.57c1.48-1.48,3.48-2.31,5.57-2.31s4.09.83,5.57,2.31c1.48,1.48,2.31,3.48,2.31,5.57s-.83,4.09-2.31,5.57Zm-4.52-7.16l-2.58.32-.09.43.51.09c.33.08.4.2.32.53l-.83,3.9c-.22,1.01.12,1.48.91,1.48.61,0,1.33-.28,1.65-.67l.1-.47c-.22.2-.55.28-.77.28-.31,0-.42-.22-.34-.6l1.13-5.29Zm-1.05-3.47c-.3,0-.58.12-.8.33-.21.21-.33.5-.33.8s.12.58.33.8c.21.21.5.33.8.33s.58-.12.8-.33c.21-.21.33-.5.33-.8s-.12-.58-.33-.8c-.21-.21-.5-.33-.8-.33Z"/>
</svg>